<?xml version="1.0" encoding="UTF-8"?><svg id="Layer_1" xmlns="http://www.w3.org/2000/svg" viewBox="0 0 439.12 274.46"><defs><style>.cls-1{fill:#231f20;}</style></defs><path class="cls-1" d="m89.07,144.15l35.78,6.01c-4.6,13.12-11.86,23.11-21.79,29.97-9.93,6.86-22.34,10.29-37.25,10.29-23.6,0-41.07-7.71-52.4-23.13C4.47,154.93,0,139.34,0,120.51c0-22.49,5.88-40.11,17.64-52.84,11.76-12.74,26.62-19.11,44.6-19.11,20.19,0,36.12,6.67,47.79,20,11.67,13.33,17.25,33.76,16.74,61.28H36.8c.26,10.65,3.15,18.94,8.69,24.86,5.54,5.92,12.44,8.88,20.7,8.88,5.62,0,10.35-1.53,14.19-4.6,3.83-3.07,6.73-8.01,8.69-14.82Zm2.04-36.29c-.26-10.39-2.94-18.29-8.05-23.71-5.11-5.41-11.33-8.12-18.66-8.12-7.84,0-14.31,2.86-19.42,8.56-5.11,5.71-7.63,13.46-7.54,23.26h53.67Z"/><path class="cls-1" d="m133.98,148.62l36.04-5.5c1.53,6.99,4.64,12.29,9.33,15.91,4.68,3.62,11.25,5.43,19.68,5.43,9.29,0,16.27-1.7,20.96-5.11,3.15-2.38,4.73-5.58,4.73-9.58,0-2.73-.85-4.98-2.56-6.77-1.79-1.7-5.79-3.28-12.01-4.73-28.97-6.39-47.33-12.22-55.08-17.51-10.73-7.33-16.1-17.51-16.1-30.54,0-11.76,4.64-21.64,13.93-29.65,9.29-8.01,23.68-12.01,43.19-12.01s32.37,3.03,41.41,9.07c9.03,6.05,15.25,15,18.66,26.84l-33.86,6.26c-1.45-5.28-4.2-9.33-8.24-12.14-4.05-2.81-9.82-4.22-17.32-4.22-9.46,0-16.23,1.32-20.32,3.96-2.73,1.88-4.09,4.3-4.09,7.28,0,2.56,1.19,4.73,3.58,6.52,3.24,2.39,14.42,5.75,33.55,10.1,19.13,4.35,32.48,9.67,40.06,15.97,7.5,6.39,11.25,15.29,11.25,26.71,0,12.44-5.2,23.13-15.59,32.08-10.39,8.95-25.77,13.42-46.13,13.42-18.49,0-33.12-3.75-43.9-11.25-10.78-7.5-17.83-17.68-21.15-30.54Z"/><path class="cls-1" d="m403.22,187.35v-35.91h35.91v35.91h-35.91Z"/><path class="cls-1" d="m392.16,80.77c-1.24-5.79-3.54-11.07-6.9-15.85-3.37-4.77-8.37-8.69-15.02-11.76-6.65-3.07-14.1-4.6-22.36-4.6-16.1,0-29.95,6.77-41.53,20.32V0L.03,35.91h270.41v151.43h35.91v-67.99c0-11.42,1.09-20.04,3.26-25.88,2.17-5.83,5.6-10.2,10.29-13.1,4.68-2.9,10.01-4.35,15.97-4.35,5.2,0,9.52,1.13,12.97,3.39,3.45,2.26,5.86,5.3,7.22,9.14,1.36,3.83,2.04,12.87,2.04,27.09v71.69h35.91v-79.62c0-12.18-.62-21.17-1.85-26.96Z"/><path class="cls-1" d="m133.98,256.82v-59.98h7.36v59.98h-7.36Z"/><path class="cls-1" d="m160.81,205.32v-8.47h7.36v8.47h-7.36Zm0,51.51v-43.45h7.36v43.45h-7.36Z"/><path class="cls-1" d="m186.65,260.42l7.16,1.06c.3,2.21,1.13,3.82,2.5,4.83,1.83,1.36,4.32,2.05,7.49,2.05,3.41,0,6.04-.68,7.9-2.05,1.85-1.36,3.11-3.27,3.76-5.73.38-1.5.56-4.65.53-9.45-3.22,3.79-7.23,5.69-12.03,5.69-5.97,0-10.6-2.15-13.87-6.46-3.27-4.31-4.91-9.48-4.91-15.51,0-4.15.75-7.97,2.25-11.48,1.5-3.5,3.68-6.21,6.53-8.12,2.85-1.91,6.2-2.86,10.04-2.86,5.13,0,9.35,2.07,12.68,6.22v-5.24h6.79v37.56c0,6.76-.69,11.56-2.07,14.38-1.38,2.82-3.56,5.05-6.55,6.69-2.99,1.64-6.66,2.46-11.03,2.46-5.18,0-9.37-1.17-12.56-3.5-3.19-2.33-4.73-5.84-4.62-10.54Zm6.1-26.1c0,5.7,1.13,9.86,3.4,12.48,2.26,2.62,5.1,3.93,8.51,3.93s6.22-1.3,8.51-3.91c2.29-2.6,3.44-6.69,3.44-12.25s-1.18-9.33-3.54-12.03c-2.36-2.7-5.2-4.05-8.53-4.05s-6.06,1.33-8.35,3.99-3.44,6.61-3.44,11.84Z"/><path class="cls-1" d="m241.22,256.82v-59.98h7.36v21.52c3.44-3.98,7.77-5.97,13.01-5.97,3.22,0,6.01.63,8.39,1.9,2.37,1.27,4.07,3.02,5.09,5.26,1.02,2.24,1.53,5.48,1.53,9.74v27.53h-7.36v-27.53c0-3.68-.8-6.36-2.39-8.04-1.6-1.68-3.85-2.52-6.77-2.52-2.18,0-4.23.57-6.16,1.7-1.92,1.13-3.29,2.67-4.11,4.6s-1.23,4.61-1.23,8.02v23.77h-7.36Z"/><path class="cls-1" d="m310.52,250.24l1.06,6.5c-2.07.44-3.93.65-5.56.65-2.67,0-4.75-.42-6.22-1.27-1.47-.85-2.51-1.96-3.11-3.33-.6-1.38-.9-4.28-.9-8.69v-25h-5.4v-5.73h5.4v-10.76l7.32-4.42v15.18h7.4v5.73h-7.4v25.41c0,2.1.13,3.45.39,4.05.26.6.68,1.08,1.27,1.43.59.35,1.42.53,2.52.53.82,0,1.9-.1,3.23-.29Z"/><path class="cls-1" d="m324.38,205.32v-8.47h7.36v8.47h-7.36Zm0,51.51v-43.45h7.36v43.45h-7.36Z"/><path class="cls-1" d="m349.57,256.82v-43.45h6.63v6.18c3.19-4.77,7.8-7.16,13.83-7.16,2.62,0,5.02.47,7.22,1.41,2.2.94,3.84,2.18,4.93,3.7,1.09,1.53,1.85,3.34,2.29,5.44.27,1.36.41,3.75.41,7.16v26.72h-7.36v-26.43c0-3-.29-5.24-.86-6.73-.57-1.49-1.59-2.67-3.05-3.56-1.46-.89-3.17-1.33-5.13-1.33-3.14,0-5.84,1-8.12,2.99-2.28,1.99-3.42,5.77-3.42,11.33v23.73h-7.36Z"/><path class="cls-1" d="m402.3,260.42l7.16,1.06c.3,2.21,1.13,3.82,2.5,4.83,1.83,1.36,4.32,2.05,7.49,2.05,3.41,0,6.04-.68,7.9-2.05,1.85-1.36,3.11-3.27,3.76-5.73.38-1.5.56-4.65.53-9.45-3.22,3.79-7.23,5.69-12.03,5.69-5.97,0-10.6-2.15-13.87-6.46-3.27-4.31-4.91-9.48-4.91-15.51,0-4.15.75-7.97,2.25-11.48,1.5-3.5,3.68-6.21,6.53-8.12,2.85-1.91,6.2-2.86,10.04-2.86,5.13,0,9.35,2.07,12.68,6.22v-5.24h6.79v37.56c0,6.76-.69,11.56-2.07,14.38s-3.56,5.05-6.55,6.69c-2.99,1.64-6.66,2.46-11.03,2.46-5.18,0-9.37-1.17-12.56-3.5-3.19-2.33-4.73-5.84-4.62-10.54Zm6.1-26.1c0,5.7,1.13,9.86,3.4,12.48,2.26,2.62,5.1,3.93,8.51,3.93s6.22-1.3,8.51-3.91c2.29-2.6,3.44-6.69,3.44-12.25s-1.18-9.33-3.54-12.03c-2.36-2.7-5.2-4.05-8.53-4.05s-6.05,1.33-8.35,3.99-3.44,6.61-3.44,11.84Z"/></svg>